<svg data-v-0dd9719b="" version="1.0" xmlns="http://www.w3.org/2000/svg" xmlns:xlink="http://www.w3.org/1999/xlink" width="100%" height="100%" viewBox="0 0 340.000000 250.000000" preserveAspectRatio="xMidYMid meet" color-interpolation-filters="sRGB" style="margin: auto;"> <rect data-v-0dd9719b="" x="0" y="0" width="100%" height="100%" fill="#0a0619" fill-opacity="1" class="background"></rect> <!----> <g data-v-0dd9719b="" fill="#ffffff" class="basesvg" transform="translate(51.78450012207031,85.38420486450195)"><g data-gra="path-name" fill-rule="" class="tp-name"><g transform="scale(1)"><g><path d="M39.92-51.81L38.34-51.81C26.34-51.97 14.45-53.39 2.44-53.44 1.09-53.44 0-52.35 0-51 0-49.64 1.09-48.55 2.44-48.55 8.53-48.55 14.55-48.17 20.64-47.79 20.53-47.47 20.53-47.14 20.53-46.87 20.91-30.25 21.13-13.58 21.34 3.04 21.4 6.84 21.51 10.7 21.51 14.5 21.51 15.86 22.59 16.94 23.95 16.94 25.25 16.94 26.34 15.86 26.34 14.5L26.34 12.82C26.18-5.27 25.8-23.41 25.47-41.49 25.47-43.28 25.53-45.73 25.31-47.52 30.2-47.19 35.03-46.98 39.92-46.92 41.22-46.92 42.31-48.01 42.31-49.37 42.31-50.72 41.22-51.81 39.92-51.81ZM61.86-14.28C60.99-15.26 59.41-15.37 58.44-14.5 57.89-14.01 57.46-13.63 56.81-13.36 53.66-11.95 51.76-17 51.27-19.23 51.16-19.88 51.05-21.13 50.94-21.62 50.18-24.28 47.52-24.82 45.73-22.81 44.37-21.23 42.42-16.67 40.57-11.4 40.62-15.53 40.57-20.09 40.13-23.73 39.97-25.09 38.78-26.01 37.42-25.85 36.12-25.69 35.19-24.44 35.36-23.14 36.77-17.65 36.06 1.74 36.06 5.11L36.06 5.49C36.06 9.4 41.17 7.22 40.95 4.94 40.03-0.76 45.57-10.86 47.14-15.04L47.3-15.48C47.68-14.5 48.17-13.52 48.82-12.55 51.76-7.93 56.48-6.79 60.99-10.26L61.7-10.86C62.67-11.73 62.78-13.31 61.86-14.28ZM83.42-15.91C82.17-16.24 80.92-15.53 80.54-14.39 79.51-12.6 75.76-7.49 73.75-5.32 73.26-7.11 73.59-10.75 73.7-12.22 73.97-15.15 74.57-18.41 74.68-21.23 74.68-22.59 73.59-23.68 72.23-23.68 70.98-23.68 69.95-22.76 69.84-21.56 69.08-22.1 68.1-22.43 66.96-22.48 62.94-22.65 58.82-18.19 58.11-14.45 57.51-11.3 57.08-4.78 61.32-4.18 64.25-3.75 66.85-7.17 68.65-9.29 68.48-5.32 69.08-0.92 72.61-0.11 75.33 0.54 76.9-1.52 78.48-3.37 80-5.16 83.85-10.1 84.83-12.17L85.16-12.98C85.48-14.28 84.72-15.59 83.42-15.91ZM67.18-15.15C66.37-14.17 64.09-11.35 62.62-9.83 62.56-11.13 62.67-12.65 62.89-13.58 63.16-14.88 64.47-16.46 65.61-17.16 66.8-17.92 67.13-17.76 67.67-16.51 67.72-16.29 67.78-16.18 67.89-16.02ZM111.77-15.42C110.63-15.8 109.43-15.32 108.89-14.28 104.27-7.82 102.26-4.78 100.69-3.2 100.2-5.49 100.31-9.88 100.36-11.62 100.36-13.47 100.26-17.54 99.87-19.23 99.33-21.45 97.49-22.38 95.37-21.34 94.23-20.8 93.25-19.93 92.49-18.95 89.88-15.64 87.33-12.17 84.83-8.69 85.16-12.82 85.81-17.27 86.41-21.18L86.35-21.07C86.79-22.32 86.08-23.73 84.83-24.17 83.58-24.6 82.17-23.9 81.74-22.65 81.25-20.2 80.87-17 80.54-14.45 80.21-11.57 79.18-3.96 80.27-1.47 81.14 0.54 83.58 0.87 85.05-0.71L85.59-1.41C86.46-2.66 85.7-1.63 86.46-2.66 89.34-6.68 92.43-10.86 95.42-14.83 95.48-13.74 95.53-12.6 95.48-11.73 95.42-8.15 94.99-0.76 97.87 1.52 100.42 3.53 103.13 1.41 104.87-0.54 106.34-2.23 107.86-4.56 109.22-6.35 110.74-8.58 112.37-10.64 113.72-12.93 114.16-14.17 113.07-14.99 111.77-15.42ZM138.22-15.15C137.02-15.86 135.56-15.53 134.85-14.45 132.89-11.68 126-8.85 122.85-7.06 122.79-7.06 122.74-7.01 122.68-7.01L122.79-7.39C123.66-10.48 124.26-13.63 124.97-16.78 125.45-18.09 125.83-19.33 125.94-20.42 126.05-21.83 125.73-23.3 124.1-23.57 122.36-23.57 120.62-20.64 119.97-17.6 118.94-15.42 116-10.37 113.72-8.96 112.58-11.19 114.38-15.21 116.22-17.22 116.66-16.89 117.15-16.73 117.69-16.73 118.99-16.73 120.08-17.81 120.02-19.17 119.86-20.53 119.59-21.72 118.23-22.48 114.43-24.55 110.57-18.25 109.49-15.48 108.13-12.11 107.91-8.15 110.57-5.16 112.58-2.93 115.35-3.91 117.31-5.49L116.06 2.17C115.52 6.25 114.27 16.08 116.17 19.71 116.6 20.53 116.98 21.02 117.58 21.4 119.75 24.11 123.66 22.38 125.45 19.71 127.95 16.02 127.63 8.04 126.05 3.91 125.29 1.96 124.1 0.16 122.36-1.03 124.91-2.77 130.02-5.38 131.75-6.41 134.09-7.71 137.24-9.72 138.92-11.79 140.12-13.63 139.36-14.39 138.22-15.15ZM122.41 10.81C122.47 12.49 122.41 16.51 120.68 17.7L120.46 17.54C119.53 14.88 120.35 7.39 120.68 4.67L120.78 4.07C122.09 5.92 122.36 8.91 122.41 10.81ZM120.13 17.38C120.08 17.38 120.02 17.32 119.91 17.27ZM160-14.5C157.33-11.02 155.27-8.42 153.15-6.63 153.26-8.91 153.59-11.3 153.86-13.41 153.97-14.5 154.35-16.84 153.86-17.81 153.21-19.06 151.69-19.5 150.49-18.85 149.57-18.3 147.61-15.1 146.96-14.12 145.71-12.27 141.64-6.52 139.3-5.16 139.3-5.32 139.25-5.43 139.25-5.54 139.03-9.56 139.85-14.07 139.96-18.09 139.96-19.44 138.87-20.53 137.51-20.53 136.21-20.53 135.12-19.44 135.12-18.09 135.01-15.32 134.63-12.33 134.47-9.5 134.36-7.39 134.09-3.26 135.45-1.52 136.97 0.33 139.47 0.22 141.48-0.81 143.81-2.12 146.2-4.83 148.37-7.77 148.37-7.28 148.32-6.79 148.32-6.3 148.26-4.24 148.16-1.74 150.49-0.76 153.75 0.49 157.82-4.29 159.78-6.52 160.81-7.66 163.96-11.24 164.29-12.38 164.99-14.77 162-16.78 160-14.5ZM177.75-15.42C176.51-15.86 175.2-15.21 174.66-14.01 172.16-10.48 170.91-8.96 169.06-7.01 168.47-6.52 167.82-6.03 167.16-5.59 165.86-4.78 165.64-4.72 164.77-5.59 164.39-8.04 164.94-15.42 165.53-17.7 166.02-18.95 165.37-20.31 164.12-20.75 162.87-21.18 161.46-20.47 160.97-19.17 160.05-16.13 159.45-7.55 160-4.56 160.27-3.04 160.86-2.23 162.06-1.3 168.74 3.86 176.13-8.09 179.11-12.38 179.6-13.69 179-15.04 177.75-15.42ZM164.39-22.7C166.19-23.41 165.86-24.98 166.02-26.39 166.08-27.75 165.1-28.84 163.74-28.84 162.38-28.84 161.24-27.75 161.14-26.39 161.08-25.25 161.03-25.2 161.3-24.06 161.73-22.81 163.15-22.21 164.39-22.7ZM193.61-15.53C192.8-15.53 191.71-14.99 190.9-13.74 189.43-11.46 188.02-9.56 186.28-7.49 185.3-6.3 181.94-2.39 179.76-1.74 179.55-3.69 179.66-7.17 179.71-8.64 179.98-18.9 180.85-29.38 181.66-39.65 181.94-43.72 182.37-48.12 182.48-52.14 182.48-53.44 181.39-54.47 180.04-54.47 178.73-54.47 177.59-53.44 177.59-52.14 177.54-48.39 177.1-44.26 176.83-40.51 176.02-30.03 175.15-19.23 174.82-8.74 174.77-6.3 174.5-0.16 175.74 1.63 177.21 3.75 180.69 3.1 182.7 2.12 187.58-0.38 192.47-7.33 195.35-11.79 195.62-12.17 195.79-12.55 195.84-13.03 195.95-14.28 194.97-15.42 193.61-15.53ZM209.85-15.53C209.04-15.53 207.95-14.99 207.14-13.74 205.67-11.46 204.26-9.56 202.52-7.49 201.54-6.3 198.17-2.39 196-1.74 195.79-3.69 195.89-7.17 195.95-8.64 196.22-18.9 197.09-29.38 197.9-39.65 198.17-43.72 198.61-48.12 198.72-52.14 198.72-53.44 197.63-54.47 196.27-54.47 194.97-54.47 193.83-53.44 193.83-52.14 193.78-48.39 193.34-44.26 193.07-40.51 192.26-30.03 191.39-19.23 191.06-8.74 191.01-6.3 190.73-0.16 191.98 1.63 193.45 3.75 196.93 3.1 198.94 2.12 203.82-0.38 208.71-7.33 211.59-11.79 211.86-12.17 212.02-12.55 212.08-13.03 212.19-14.28 211.21-15.42 209.85-15.53ZM235.92-14.61C235.05-15.64 233.53-15.86 232.5-14.99 230.05-13.09 227.83-11.13 225.71-8.8L225.82-15.42C225.87-17.16 226.2-19.61 224.46-20.58 222.94-21.45 221.58-20.64 220.71-19.39 219.79-18.14 219.03-16.94 218.05-15.7 217.13-14.45 214.25-11.19 212.57-9.88 211.97-12.44 212.4-18.47 212.4-20.58 212.4-21.94 211.32-23.03 210.01-23.03 208.66-23.03 207.57-21.94 207.57-20.58 207.52-16.67 206.32-7.44 210.12-5.16 213.16-3.26 216.15-6.41 218.16-8.42 219.19-9.5 220.12-10.48 220.93-11.46 220.88-9.02 220.77-5.97 220.6-2.82 216.42 2.82 213.11 9.18 212.24 15.64 211.86 18.57 211.81 24.11 215.66 24.71 222.56 25.85 224.57 7.77 225.06 2.82 225.22 1.52 225.33 0.22 225.38-1.09 228.59-5.16 231.63-8.09 235.49-11.19 236.57-12.06 236.73-13.58 235.92-14.61ZM216.91 18.14C216.97 15.8 217.78 12.82 218.32 11.35 218.65 10.37 219.03 9.4 219.46 8.47 218.87 12.22 218.05 15.64 216.91 18.14Z" transform="translate(0, 54.470001220703125)"></path></g> <!----> <!----> <!----> <!----> <!----> <!----> <!----></g></g> <!----></g><defs v-gra="od"></defs></svg>